<svg width="1180" height="708" viewBox="0 0 1180 708" fill="none" xmlns="http://www.w3.org/2000/svg">
<rect width="1180" height="708" fill="url(#paint0_linear_9_218)"/>
<g clip-path="url(#clip0_9_218)">
<path d="M408.005 657.034C569.274 657.034 700.009 517.787 700.009 346.017C700.009 174.247 569.274 35 408.005 35C246.736 35 116.001 174.247 116.001 346.017C116.001 517.787 246.736 657.034 408.005 657.034Z" fill="#F2F2F2"/>
<path d="M1104 586.726C1104 587.482 1103.94 588.237 1103.83 588.984C1096.69 635.593 869.37 673 590 673C310.63 673 83.31 635.593 76.17 588.984C76.0584 588.237 76.0015 587.482 76 586.726C76 586.513 76 586.289 76.02 586.076C76.02 585.959 76.03 585.852 76.03 585.735C76.0383 585.693 76.0416 585.65 76.04 585.607C76.08 585.128 76.14 584.67 76.22 584.202C79.48 565.147 119.57 547.636 184.96 533.609C238.44 522.137 308.85 512.988 389.89 507.236C451.39 502.869 519.01 500.452 590 500.452C647.12 500.452 702.06 502.017 753.38 504.893H753.4C764.14 505.5 774.72 506.164 785.14 506.885C856.47 511.806 919.77 519.336 970.77 528.762C1002.14 534.567 1028.87 541.096 1049.96 548.169H1049.97C1082.43 559.065 1101.57 571.282 1103.78 584.202C1103.86 584.67 1103.92 585.128 1103.96 585.607C1103.96 585.65 1103.96 585.693 1103.97 585.735C1103.97 585.852 1103.98 585.959 1103.98 586.076C1104 586.289 1104 586.513 1104 586.726Z" fill="#3F3D56"/>
<path opacity="0.1" d="M577 669.805C668.127 669.805 742 658.36 742 644.242C742 630.124 668.127 618.679 577 618.679C485.873 618.679 412 630.124 412 644.242C412 658.36 485.873 669.805 577 669.805Z" fill="black"/>
<path opacity="0.1" d="M1049.96 548.169C1044.19 549.926 1037.69 551.556 1030.56 553.047C1001.2 559.203 961.14 562.984 917.03 562.984C867.75 562.984 823.58 558.266 793.65 550.8C768.81 544.601 753.77 536.538 753.77 527.687C753.77 519.911 765.41 512.711 785.14 506.885C856.47 511.806 919.77 519.336 970.77 528.762C1002.14 534.567 1028.87 541.096 1049.96 548.169Z" fill="black"/>
<path opacity="0.1" d="M608 536.399C608 552.514 513.08 565.583 396 565.583C278.92 565.583 184 552.514 184 536.399C184.025 535.382 184.362 534.402 184.96 533.609C238.44 522.137 308.85 512.988 389.89 507.236C391.92 507.226 393.957 507.222 396 507.226C513.08 507.226 608 520.284 608 536.399Z" fill="black"/>
<path d="M534.157 391.786H492.472V535.134H534.157V391.786Z" fill="#E4C5A2"/>
<path d="M397.191 324.552H355.506V535.134H397.191V324.552Z" fill="#E4C5A2"/>
<path d="M261.416 324.552H219.73V535.134H261.416V324.552Z" fill="#E4C5A2"/>
<path d="M329.303 324.552H287.618V467.9H329.303V324.552Z" fill="#E4C5A2"/>
<path d="M465.079 324.552H423.393V366.415H465.079V324.552Z" fill="#E4C5A2"/>
<path d="M465.079 391.786H423.393V535.134H465.079V391.786Z" fill="#8A8B8C"/>
<path d="M602.045 324.552H492.472V366.415H602.045V324.552Z" fill="#E4C5A2"/>
<path opacity="0.1" d="M829.417 578.565C829.417 630.476 761.483 614.419 678.304 614.419C595.125 614.419 528.2 630.476 528.2 578.565C528.2 526.654 596.125 515.364 679.304 515.364C762.483 515.364 829.417 526.654 829.417 578.565Z" fill="black"/>
<path d="M829.417 565.784C829.417 617.695 761.483 601.638 678.304 601.638C595.125 601.638 528.2 617.695 528.2 565.784C528.2 513.873 596.125 502.583 679.304 502.583C762.483 502.583 829.417 513.873 829.417 565.784Z" fill="#3F3D56"/>
<path d="M815.542 472.593L818.975 487.679C819.013 487.847 819.007 488.023 818.958 488.188L803.382 540.031C803.321 540.236 803.195 540.413 803.026 540.531C802.857 540.649 802.655 540.702 802.453 540.681C802.252 540.66 802.063 540.566 801.919 540.415C801.775 540.263 801.684 540.064 801.661 539.85L799.506 519.654C799.492 519.52 799.505 519.384 799.544 519.256L813.841 472.523C813.9 472.328 814.018 472.159 814.176 472.042C814.334 471.925 814.524 471.866 814.716 471.874C814.908 471.881 815.093 471.956 815.242 472.086C815.391 472.216 815.496 472.394 815.542 472.593V472.593Z" fill="#2F2E41"/>
<path d="M814.278 473.867L817.449 486.81L803.711 534.082L800.541 519.451L814.278 473.867Z" fill="#F2F2F2"/>
<path d="M745.064 544.212C745.592 545.9 800.013 543.649 800.541 543.086C801.002 542.382 801.392 541.627 801.704 540.835C802.2 539.71 802.655 538.584 802.655 538.584L800.541 520.362L746.649 518.325C746.649 518.325 745.302 533.767 745.027 540.835C744.933 541.959 744.946 543.091 745.064 544.212V544.212Z" fill="#2F2E41"/>
<path opacity="0.1" d="M793.673 522.827L794.729 538.584H770.953V522.827H793.673Z" fill="black"/>
<path opacity="0.1" d="M763.028 527.892L763.17 527.862L762.5 534.645H749.291V527.892H763.028Z" fill="black"/>
<path opacity="0.1" d="M745.064 544.212C745.592 545.9 800.013 543.649 800.541 543.086C801.002 542.382 801.392 541.627 801.704 540.835H745.027C744.933 541.959 744.946 543.091 745.064 544.212V544.212Z" fill="black"/>
<path d="M661.055 485.122H675.849L712.306 469.928C712.306 469.928 738.195 458.673 736.082 480.057C733.968 501.442 730.27 530.143 730.27 530.143C730.27 530.143 718.646 524.515 712.306 526.204C705.966 527.892 710.193 491.875 710.193 491.875C710.193 491.875 658.414 518.325 653.659 514.948C648.903 511.572 647.847 487.936 647.847 487.936L661.055 485.122Z" fill="#9D4D61"/>
<path opacity="0.1" d="M661.055 485.122H675.849L712.306 469.928C712.306 469.928 738.195 458.673 736.082 480.057C733.968 501.442 730.27 530.143 730.27 530.143C730.27 530.143 718.646 524.515 712.306 526.204C705.966 527.892 710.193 491.875 710.193 491.875C710.193 491.875 658.414 518.325 653.659 514.948C648.903 511.572 647.847 487.936 647.847 487.936L661.055 485.122Z" fill="#9D4D61"/>
<path d="M684.363 435.776L702.267 463.175L744.007 500.317C744.007 500.317 782.577 509.884 777.294 516.637C772.01 523.39 739.78 509.884 739.78 509.884C739.78 509.884 691.7 472.742 690.115 469.928C688.53 467.114 671.094 440.664 671.094 440.664L684.363 435.776Z" fill="#A0616A"/>
<path opacity="0.1" d="M684.363 435.776L702.267 463.175L744.007 500.317C744.007 500.317 782.577 509.884 777.294 516.637C772.01 523.39 739.78 509.884 739.78 509.884C739.78 509.884 691.7 472.742 690.115 469.928C688.53 467.114 671.094 440.664 671.094 440.664L684.363 435.776Z" fill="black"/>
<path d="M681.661 405.773C694.792 405.773 705.437 394.435 705.437 380.449C705.437 366.463 694.792 355.125 681.661 355.125C668.53 355.125 657.885 366.463 657.885 380.449C657.885 394.435 668.53 405.773 681.661 405.773Z" fill="#A0616A"/>
<path d="M680.076 402.96C680.076 402.96 672.151 417.591 670.566 425.47C668.981 433.349 646.79 409.713 646.79 409.713L643.884 401.553C643.884 401.553 664.754 391.142 663.169 382.7C661.584 374.259 680.076 402.96 680.076 402.96Z" fill="#A0616A"/>
<path d="M673.736 413.652L685.36 437.851C685.36 437.851 682.718 449.669 678.491 450.794C674.264 451.92 656.3 436.162 656.3 436.162L673.736 413.652Z" fill="#D0CDE1"/>
<path d="M684.303 446.855L705.966 477.244L757.744 518.325C757.744 518.325 795.258 526.766 786.804 532.957C778.35 539.147 754.046 527.329 754.046 527.329C754.046 527.329 701.739 497.503 690.643 485.122C679.548 472.742 658.942 451.92 658.942 451.92L684.303 446.855Z" fill="#A0616A"/>
<path d="M655.244 494.126L661.584 504.819L699.423 492.139C703.522 490.728 707.86 490.282 712.137 490.831C716.414 491.381 720.528 492.913 724.194 495.322C730.798 499.754 735.025 506.789 725.515 517.2C706.494 538.022 693.813 526.766 693.813 526.766C693.813 526.766 629.882 558.844 619.315 543.086C608.748 527.329 608.22 519.451 608.22 519.451C608.22 519.451 648.903 492.438 655.244 494.126Z" fill="#9D4D61"/>
<path d="M734.497 531.268C734.497 531.268 751.404 543.086 731.327 548.714C711.249 554.342 696.455 546.463 696.455 546.463C696.455 546.463 679.019 546.463 679.019 536.896C679.019 527.329 684.831 526.204 684.831 526.204L702.795 529.017C702.795 529.017 724.458 522.827 734.497 531.268Z" fill="#D0CDE1"/>
<path d="M701.166 374.079C702.728 374.974 704.407 375.615 706.148 375.98C707.023 376.146 707.924 376.037 708.741 375.664C709.557 375.291 710.254 374.672 710.744 373.883C711.132 372.947 711.311 371.928 711.266 370.905C711.329 367.815 711.119 364.475 709.281 362.083C708.111 360.561 706.403 359.602 705.191 358.117C704.377 357.004 703.684 355.797 703.124 354.519C700.769 349.807 697.281 345.278 692.434 343.92C690.385 343.451 688.286 343.28 686.194 343.412L673.988 343.595C672.011 343.527 670.034 343.754 668.116 344.268C664.187 345.533 661.326 349.052 658.706 352.418C656.673 354.871 654.865 357.528 653.31 360.35C651.201 364.54 650.134 369.235 650.212 373.988C650.196 375.207 650.344 376.423 650.651 377.597C651.011 378.674 651.456 379.716 651.983 380.713C654.272 385.501 655.631 391.483 653.053 396.102C657.531 394.154 661.962 391.599 664.916 387.519C666.238 385.694 667.274 383.557 669.035 382.218C670.796 380.879 673.666 380.763 674.796 382.728C675.184 383.523 675.384 384.408 675.378 385.304C675.343 386.785 675.569 388.26 676.046 389.651C676.302 390.34 676.77 390.915 677.374 391.282C677.978 391.649 678.681 391.786 679.368 391.67C681.669 390.98 681.448 387.219 683.22 385.511C684.566 384.214 686.642 384.462 688.37 383.873C689.361 383.472 690.263 382.856 691.018 382.063C691.773 381.271 692.365 380.32 692.757 379.271C693.412 377.708 693.402 373.616 694.641 372.769C696.194 371.707 699.726 373.395 701.166 374.079Z" fill="#2F2E41"/>
<path d="M641.996 398.883C643.066 398.579 644.192 398.582 645.26 398.892C648.652 399.862 656.255 402.429 657.885 406.336C659.999 411.401 667.396 419.28 667.396 419.28C667.396 419.28 677.434 429.972 675.321 437.288C673.208 444.604 665.282 453.045 665.282 453.045C665.282 453.045 667.396 487.936 656.829 496.94C646.261 505.944 642.035 499.754 642.035 508.196C642.035 516.637 609.277 543.086 602.936 526.767C602.936 526.767 606.106 496.378 605.05 485.685C604.008 475.147 605.533 409.398 641.996 398.883Z" fill="#8C6C3B"/>
<path d="M658.942 413.089C658.942 413.089 691.172 438.413 685.36 449.106C685.36 449.106 665.811 459.235 661.584 458.673C657.357 458.11 640.978 438.413 636.751 436.725C632.524 435.037 630.411 404.648 658.942 413.089Z" fill="#D0CDE1"/>
<path d="M569.811 435.782C564.798 437.585 560.257 441.803 559.23 447.331C558.754 449.893 559.046 452.557 558.646 455.134C557.717 461.111 553.312 465.676 549.249 469.916C545.187 474.156 540.991 479.083 540.694 485.133C540.37 491.758 544.881 497.964 544.1 504.546C543.193 512.192 535.611 517.147 533.736 524.591C532.485 529.562 534.018 534.917 536.542 539.306C541.35 547.669 549.57 553.347 558.322 556.391C567.075 559.435 576.398 560.076 585.605 560.178C596.815 560.303 608.988 559.278 617.411 551.397C622.222 546.856 625.244 540.544 625.87 533.729C626.67 524.6 623.093 515.168 625.56 506.384C627.113 500.856 631.007 495.808 630.426 490.071C629.858 484.462 625.258 480.486 622.103 475.955C619.157 471.724 617.369 466.727 615.617 461.802L609.622 444.947C608.444 441.634 607.15 438.149 604.523 435.975C599.607 431.904 591.701 432.704 585.952 433.543C580.619 434.322 574.94 433.937 569.811 435.782Z" fill="#2F2E41"/>
<path d="M571.688 484.878C571.688 484.878 574.346 494.078 554.414 504.692C534.483 515.306 556.408 526.628 556.408 526.628L579.661 532.29C579.661 532.29 603.578 528.751 606.235 524.506C608.893 520.26 613.543 506.107 612.215 503.984C611.22 502.473 610.109 501.053 608.893 499.739C608.893 499.739 592.948 496.908 593.612 489.124C594.277 481.34 571.688 484.878 571.688 484.878Z" fill="#FFB9B9"/>
<path opacity="0.1" d="M571.688 484.878C571.688 484.878 574.346 494.078 554.414 504.692C534.483 515.306 556.408 526.628 556.408 526.628L579.661 532.29C579.661 532.29 603.578 528.751 606.235 524.506C608.893 520.26 613.543 506.107 612.215 503.984C611.22 502.473 610.109 501.053 608.893 499.739C608.893 499.739 592.948 496.908 593.612 489.124C594.277 481.34 571.688 484.878 571.688 484.878Z" fill="black"/>
<path d="M584.643 499.385C596.385 499.385 605.903 489.247 605.903 476.741C605.903 464.235 596.385 454.096 584.643 454.096C572.902 454.096 563.383 464.235 563.383 476.741C563.383 489.247 572.902 499.385 584.643 499.385Z" fill="#FFB9B9"/>
<path d="M582.318 524.506C582.318 524.506 556.714 522.511 556.229 503.695C556.229 503.695 547.106 502.569 544.449 505.4C541.791 508.23 533.155 510.353 533.155 517.429C533.155 524.506 547.771 545.734 547.771 545.734C547.771 545.734 555.743 574.04 552.421 578.993C549.099 583.946 548.435 596.684 548.435 596.684C548.435 596.684 581.654 593.853 586.969 596.684C592.284 599.514 613.543 599.514 614.872 596.684C616.201 593.853 613.543 558.472 613.543 558.472C613.543 558.472 619.523 549.98 618.194 540.073L634.139 520.26C634.139 520.26 628.16 501.154 618.858 501.154C618.858 501.154 606.235 497.616 605.903 499.385C605.571 501.154 612.215 520.967 582.318 524.506Z" fill="#8C6C3B"/>
<path d="M522.525 586.777C522.525 586.777 528.504 596.684 543.785 598.807C559.065 600.93 561.723 595.269 560.394 593.853C559.065 592.438 543.12 586.069 543.12 586.069L533.819 578.285L522.525 586.777Z" fill="#FFB9B9"/>
<path d="M631.481 578.285L614.208 588.9C614.208 588.9 591.619 587.485 600.256 594.561C608.893 601.637 624.838 598.807 624.838 598.807L640.118 591.023L631.481 578.285Z" fill="#FFB9B9"/>
<path d="M545.113 596.684C545.113 596.684 529.168 638.434 548.435 644.803C567.702 651.171 620.851 649.756 632.81 641.264C644.769 632.773 648.091 621.451 646.098 617.913C644.104 614.375 630.817 604.468 621.516 603.76C612.215 603.052 545.113 596.684 545.113 596.684Z" fill="#2F2E41"/>
<path opacity="0.05" d="M545.113 596.684C545.113 596.684 529.168 638.434 548.435 644.803C567.702 651.171 620.851 649.756 632.81 641.264C644.769 632.773 648.091 621.451 646.098 617.913C644.104 614.375 630.817 604.468 621.516 603.76C612.215 603.052 545.113 596.684 545.113 596.684Z" fill="black"/>
<path d="M620.378 599.278C620.378 599.278 676.659 577.578 675.994 603.76C675.33 629.942 640.118 637.019 640.118 637.019L629.488 638.434L571.024 640.557C571.024 640.557 573.017 629.235 568.366 627.82C568.366 627.82 583.647 623.574 584.311 622.866C584.975 622.159 622.845 608.006 625.502 607.298C628.159 606.591 636.132 600.93 642.111 601.637C642.111 601.637 648.755 595.976 656.063 597.391L635.468 598.807L620.378 599.278Z" fill="#9D4D61"/>
<path opacity="0.1" d="M620.378 599.278C620.378 599.278 676.659 577.578 675.994 603.76C675.33 629.942 640.118 637.019 640.118 637.019L629.488 638.434L571.024 640.557C571.024 640.557 573.017 629.235 568.366 627.82C568.366 627.82 583.647 623.574 584.311 622.866C584.975 622.159 622.845 608.006 625.502 607.298C628.159 606.591 636.132 600.93 642.111 601.637C642.111 601.637 648.755 595.976 656.063 597.391L635.468 598.807L620.378 599.278Z" fill="#9D4D61"/>
<path d="M610.434 602.792L617.53 620.036L660.714 603.76L664.036 594.561L652.741 592.438L630.035 596.684L620.187 599.514L610.434 602.792Z" fill="#9D4D61"/>
<path opacity="0.1" d="M610.434 602.792L617.53 620.036L660.714 603.76L664.036 594.561L652.741 592.438L630.035 596.684L620.187 599.514L610.434 602.792Z" fill="#9D4D61"/>
<path d="M518.538 623.574C518.538 623.574 531.161 640.557 545.778 644.803C560.394 649.048 568.366 643.387 568.366 643.387L563.716 623.574L561.723 610.836L553.086 604.468L535.812 595.976L515.217 588.9C515.217 588.9 506.58 587.485 506.58 588.9C506.58 590.315 514.552 611.544 514.552 611.544L518.538 623.574Z" fill="#2F2E41"/>
<path d="M533.819 632.773C533.819 632.773 536.476 653.294 539.798 654.709C543.12 656.125 553.086 653.294 555.743 651.879C558.401 650.464 567.434 643.934 567.434 643.934C567.434 643.934 535.812 631.358 533.819 632.773Z" fill="#F2F2F2"/>
<path d="M594.277 634.896L606.9 637.019L605.571 653.294L587.964 648.739L594.277 634.896Z" fill="#FFB9B9"/>
<path d="M602.186 639.425C602.186 639.425 596.27 646.926 602.249 651.171L606.235 654.709C606.235 654.709 619.523 657.54 620.851 658.955C622.18 660.37 627.495 656.832 627.495 656.832C627.495 656.832 628.16 635.603 627.495 634.188C626.831 632.773 618.858 631.358 618.194 632.773C617.53 634.188 609.557 636.311 604.907 634.896L602.186 639.425Z" fill="#F2F2F2"/>
<path d="M549.099 601.637C549.099 601.637 502.594 572.624 495.285 583.239C487.977 593.853 480.005 608.714 501.265 620.036C522.525 631.358 588.962 654.709 588.962 654.709C588.962 654.709 598.927 638.434 598.927 634.188C598.927 634.188 563.716 617.205 557.736 615.79C551.757 614.375 527.84 598.099 524.518 596.684C521.196 595.269 516.545 591.023 516.545 591.023L549.099 601.637Z" fill="#9D4D61"/>
<path d="M535.812 513.891L533.155 516.014C533.155 516.014 527.175 532.29 526.511 541.489C525.846 550.688 517.874 578.993 518.538 582.531C519.203 586.069 519.867 588.9 523.853 592.438C523.853 592.438 529.168 579.701 538.47 581.824L549.764 537.951L535.812 513.891Z" fill="#8C6C3B"/>
<path d="M628.824 513.891L634.139 520.26C634.139 520.26 637.461 528.751 637.461 530.874C637.461 532.997 644.104 564.133 644.769 565.548C645.433 566.963 648.091 584.654 644.769 588.9C641.447 593.146 635.468 595.976 635.468 595.976C635.468 595.976 639.454 581.116 626.831 580.408L628.16 574.747L616.201 532.29L628.824 513.891Z" fill="#8C6C3B"/>
<path d="M537.141 562.61V599.884C537.141 602.238 538.01 604.497 539.561 606.174C541.112 607.85 543.22 608.809 545.43 608.844L618.615 609.999C620.811 610.034 622.934 609.152 624.528 607.542C626.122 605.932 627.062 603.722 627.147 601.383L628.493 564.105C628.536 562.911 628.354 561.72 627.959 560.602C627.563 559.484 626.962 558.461 626.19 557.594C625.418 556.727 624.491 556.034 623.464 555.554C622.436 555.074 621.329 554.818 620.207 554.801L545.676 553.65C544.561 553.633 543.454 553.852 542.419 554.295C541.384 554.737 540.443 555.394 539.648 556.228C538.854 557.062 538.223 558.056 537.793 559.151C537.363 560.247 537.141 561.423 537.141 562.61V562.61Z" fill="#3F3D56"/>
<path d="M585.89 476.015C598.529 476.015 608.774 470.139 608.774 462.89C608.774 455.642 598.529 449.765 585.89 449.765C573.252 449.765 563.006 455.642 563.006 462.89C563.006 470.139 573.252 476.015 585.89 476.015Z" fill="#2F2E41"/>
<path d="M581.986 587.838C584.921 587.838 587.301 585.304 587.301 582.177C587.301 579.051 584.921 576.516 581.986 576.516C579.05 576.516 576.671 579.051 576.671 582.177C576.671 585.304 579.05 587.838 581.986 587.838Z" fill="#F2F2F2"/>
</g>
<defs>
<linearGradient id="paint0_linear_9_218" x1="13" y1="708" x2="1156" y2="52.5" gradientUnits="userSpaceOnUse">
<stop stop-color="#F3D6B4"/>
<stop offset="1" stop-color="#F3DCBD"/>
</linearGradient>
<clipPath id="clip0_9_218">
<rect width="1028" height="638" fill="white" transform="translate(76 35)"/>
</clipPath>
</defs>
</svg>
