<svg width="606" height="384" viewBox="0 0 606 384" fill="none" xmlns="http://www.w3.org/2000/svg">
<rect width="606" height="384" fill="url(#paint0_linear_14_3)"/>
<g clip-path="url(#clip0_14_3)">
<path d="M495.669 327.678L496.162 316.337C501.302 313.526 507.035 312.041 512.863 312.012C504.842 318.721 505.844 331.653 500.406 340.675C496.927 346.348 491.116 350.094 484.612 350.857L477.9 355.061C476.036 344.43 478.816 333.497 485.507 325.143C487.384 322.846 489.536 320.8 491.913 319.053C493.521 323.39 495.669 327.678 495.669 327.678Z" fill="#F2F2F2"/>
<path d="M156.346 315.25L140.147 310.233C138.023 301.403 138.038 292.176 140.19 283.354C146.86 298.008 165.92 301.363 176.905 312.983C183.79 320.379 187.013 330.576 185.665 340.696L189.211 352.427C173.151 351.242 158.405 342.921 148.856 329.659C146.245 325.955 144.1 321.93 142.472 317.679C149.342 316.882 156.346 315.25 156.346 315.25H156.346Z" fill="#F2F2F2"/>
<path d="M439.541 353.206C439.538 353.55 439.405 353.879 439.169 354.123C438.933 354.363 438.613 354.498 438.279 354.497H433.208C432.514 354.499 431.949 353.926 431.946 353.215V196.311C431.946 192.852 430.811 190.045 429.417 190.039H113.723C112.323 190.045 111.194 192.852 111.188 196.311V352.245C111.185 352.909 110.692 353.464 110.046 353.529C109.024 353.632 108.002 353.723 106.987 353.806C106.961 353.806 106.936 353.813 106.911 353.813C106.356 353.865 105.801 353.903 105.246 353.948H105.239C104.949 353.413 104.672 352.864 104.388 352.316C104.297 352.129 104.249 351.924 104.249 351.716V188.174C104.249 187.219 104.287 186.257 104.35 185.309C104.44 184.006 104.598 182.71 104.823 181.424C105.889 175.43 108.299 171.371 111.036 171.358H432.098C432.497 171.36 432.892 171.446 433.258 171.609C433.796 171.853 434.283 172.201 434.69 172.635C435.243 173.224 435.717 173.886 436.097 174.604C437.447 177.036 438.412 180.663 438.752 184.883C438.752 184.922 438.759 184.96 438.759 184.999C438.847 186.045 438.891 187.109 438.885 188.174L438.973 202.002L439.03 210.249L439.2 236.125L439.263 245.314L439.541 353.206V353.206Z" fill="#E6E6E6"/>
<path d="M322.376 123.52H290.203C289.255 123.522 288.488 124.309 288.489 125.278V177.271H324.094V125.278C324.095 124.308 323.326 123.521 322.378 123.52H322.376V123.52ZM306.398 153.062C304.304 153.052 302.609 151.318 302.599 149.176V143.179C302.599 141.032 304.3 139.292 306.398 139.292C308.496 139.292 310.197 141.032 310.197 143.179V149.176C310.187 151.318 308.492 153.052 306.398 153.062Z" fill="#CCCCCC"/>
<path d="M288.379 175.608V180.625C288.38 181.166 288.808 181.604 289.337 181.605H323.246C323.775 181.603 324.202 181.165 324.205 180.625V175.608H288.379Z" fill="#3F3D56"/>
<path d="M375.651 42.3788H238.125C235.665 42.3828 233.672 44.422 233.668 46.9386V141.878C233.67 144.395 235.664 146.435 238.125 146.438H375.651C378.112 146.435 380.106 144.395 380.108 141.878V46.9386C380.104 44.422 378.111 42.3828 375.651 42.3788V42.3788Z" fill="#E6E6E6"/>
<path d="M374.503 45.6723H239.274C237.957 45.6752 236.891 46.7684 236.89 48.116V140.702C236.893 142.048 237.959 143.138 239.274 143.141H374.503C375.819 143.138 376.885 142.048 376.887 140.702V48.116C376.887 46.7684 375.82 45.6752 374.503 45.6723Z" fill="white"/>
<path d="M348.163 183.351H267.709C266.892 183.351 266.229 182.673 266.229 181.837C266.229 181.732 266.24 181.628 266.261 181.525L267.509 175.459C267.655 174.76 268.258 174.26 268.957 174.257H346.915C347.614 174.26 348.216 174.76 348.363 175.459L349.611 181.525C349.78 182.343 349.268 183.146 348.468 183.318C348.368 183.34 348.265 183.351 348.163 183.351Z" fill="#CCCCCC"/>
<path d="M271.698 175.35H269.836C269.666 175.35 269.528 175.491 269.528 175.665V176.555C269.528 176.729 269.666 176.87 269.836 176.87H271.698C271.868 176.87 272.006 176.729 272.006 176.555V175.665C272.006 175.491 271.868 175.35 271.698 175.35Z" fill="#E6E6E6"/>
<path d="M276.654 175.35H274.792C274.622 175.35 274.484 175.491 274.484 175.665V176.555C274.484 176.729 274.622 176.87 274.792 176.87H276.654C276.824 176.87 276.962 176.729 276.962 176.555V175.665C276.962 175.491 276.824 175.35 276.654 175.35Z" fill="#E6E6E6"/>
<path d="M281.61 175.35H279.748C279.578 175.35 279.44 175.491 279.44 175.665V176.555C279.44 176.729 279.578 176.87 279.748 176.87H281.61C281.78 176.87 281.918 176.729 281.918 176.555V175.665C281.918 175.491 281.78 175.35 281.61 175.35Z" fill="#E6E6E6"/>
<path d="M286.566 175.35H284.704C284.534 175.35 284.396 175.491 284.396 175.665V176.555C284.396 176.729 284.534 176.87 284.704 176.87H286.566C286.736 176.87 286.874 176.729 286.874 176.555V175.665C286.874 175.491 286.736 175.35 286.566 175.35Z" fill="#E6E6E6"/>
<path d="M291.522 175.35H289.66C289.49 175.35 289.352 175.491 289.352 175.665V176.555C289.352 176.729 289.49 176.87 289.66 176.87H291.522C291.692 176.87 291.83 176.729 291.83 176.555V175.665C291.83 175.491 291.692 175.35 291.522 175.35Z" fill="#E6E6E6"/>
<path d="M296.477 175.35H294.615C294.445 175.35 294.307 175.491 294.307 175.665V176.555C294.307 176.729 294.445 176.87 294.615 176.87H296.477C296.647 176.87 296.785 176.729 296.785 176.555V175.665C296.785 175.491 296.647 175.35 296.477 175.35Z" fill="#E6E6E6"/>
<path d="M301.433 175.35H299.571C299.401 175.35 299.263 175.491 299.263 175.665V176.555C299.263 176.729 299.401 176.87 299.571 176.87H301.433C301.603 176.87 301.741 176.729 301.741 176.555V175.665C301.741 175.491 301.603 175.35 301.433 175.35Z" fill="#E6E6E6"/>
<path d="M306.389 175.35H304.527C304.357 175.35 304.219 175.491 304.219 175.665V176.555C304.219 176.729 304.357 176.87 304.527 176.87H306.389C306.559 176.87 306.697 176.729 306.697 176.555V175.665C306.697 175.491 306.559 175.35 306.389 175.35Z" fill="#E6E6E6"/>
<path d="M311.345 175.35H309.483C309.313 175.35 309.175 175.491 309.175 175.665V176.555C309.175 176.729 309.313 176.87 309.483 176.87H311.345C311.515 176.87 311.653 176.729 311.653 176.555V175.665C311.653 175.491 311.515 175.35 311.345 175.35Z" fill="#E6E6E6"/>
<path d="M316.301 175.35H314.439C314.269 175.35 314.131 175.491 314.131 175.665V176.555C314.131 176.729 314.269 176.87 314.439 176.87H316.301C316.471 176.87 316.609 176.729 316.609 176.555V175.665C316.609 175.491 316.471 175.35 316.301 175.35Z" fill="#E6E6E6"/>
<path d="M321.256 175.35H319.394C319.224 175.35 319.086 175.491 319.086 175.665V176.555C319.086 176.729 319.224 176.87 319.394 176.87H321.256C321.427 176.87 321.564 176.729 321.564 176.555V175.665C321.564 175.491 321.427 175.35 321.256 175.35Z" fill="#E6E6E6"/>
<path d="M326.212 175.35H324.35C324.18 175.35 324.042 175.491 324.042 175.665V176.555C324.042 176.729 324.18 176.87 324.35 176.87H326.212C326.382 176.87 326.52 176.729 326.52 176.555V175.665C326.52 175.491 326.382 175.35 326.212 175.35Z" fill="#E6E6E6"/>
<path d="M331.168 175.35H329.306C329.136 175.35 328.998 175.491 328.998 175.665V176.555C328.998 176.729 329.136 176.87 329.306 176.87H331.168C331.338 176.87 331.476 176.729 331.476 176.555V175.665C331.476 175.491 331.338 175.35 331.168 175.35Z" fill="#E6E6E6"/>
<path d="M336.124 175.35H334.262C334.092 175.35 333.954 175.491 333.954 175.665V176.555C333.954 176.729 334.092 176.87 334.262 176.87H336.124C336.294 176.87 336.432 176.729 336.432 176.555V175.665C336.432 175.491 336.294 175.35 336.124 175.35Z" fill="#E6E6E6"/>
<path d="M341.08 175.35H339.218C339.048 175.35 338.91 175.491 338.91 175.665V176.555C338.91 176.729 339.048 176.87 339.218 176.87H341.08C341.25 176.87 341.388 176.729 341.388 176.555V175.665C341.388 175.491 341.25 175.35 341.08 175.35Z" fill="#E6E6E6"/>
<path d="M346.035 175.35H344.173C344.003 175.35 343.865 175.491 343.865 175.665V176.555C343.865 176.729 344.003 176.87 344.173 176.87H346.035C346.206 176.87 346.343 176.729 346.343 176.555V175.665C346.343 175.491 346.206 175.35 346.035 175.35Z" fill="#E6E6E6"/>
<path d="M271.64 177.884H269.778C269.608 177.884 269.47 178.026 269.47 178.199V179.09C269.47 179.264 269.608 179.405 269.778 179.405H271.64C271.81 179.405 271.948 179.264 271.948 179.09V178.199C271.948 178.026 271.81 177.884 271.64 177.884Z" fill="#E6E6E6"/>
<path d="M276.596 177.884H274.734C274.564 177.884 274.426 178.026 274.426 178.199V179.09C274.426 179.264 274.564 179.405 274.734 179.405H276.596C276.766 179.405 276.904 179.264 276.904 179.09V178.199C276.904 178.026 276.766 177.884 276.596 177.884Z" fill="#E6E6E6"/>
<path d="M281.551 177.884H279.689C279.519 177.884 279.381 178.026 279.381 178.199V179.09C279.381 179.264 279.519 179.405 279.689 179.405H281.551C281.722 179.405 281.859 179.264 281.859 179.09V178.199C281.859 178.026 281.722 177.884 281.551 177.884Z" fill="#E6E6E6"/>
<path d="M286.507 177.884H284.645C284.475 177.884 284.337 178.026 284.337 178.199V179.09C284.337 179.264 284.475 179.405 284.645 179.405H286.507C286.677 179.405 286.815 179.264 286.815 179.09V178.199C286.815 178.026 286.677 177.884 286.507 177.884Z" fill="#E6E6E6"/>
<path d="M291.463 177.884H289.601C289.431 177.884 289.293 178.026 289.293 178.199V179.09C289.293 179.264 289.431 179.405 289.601 179.405H291.463C291.633 179.405 291.771 179.264 291.771 179.09V178.199C291.771 178.026 291.633 177.884 291.463 177.884Z" fill="#E6E6E6"/>
<path d="M296.419 177.884H294.557C294.387 177.884 294.249 178.026 294.249 178.199V179.09C294.249 179.264 294.387 179.405 294.557 179.405H296.419C296.589 179.405 296.727 179.264 296.727 179.09V178.199C296.727 178.026 296.589 177.884 296.419 177.884Z" fill="#E6E6E6"/>
<path d="M301.375 177.884H299.513C299.343 177.884 299.205 178.026 299.205 178.199V179.09C299.205 179.264 299.343 179.405 299.513 179.405H301.375C301.545 179.405 301.683 179.264 301.683 179.09V178.199C301.683 178.026 301.545 177.884 301.375 177.884Z" fill="#E6E6E6"/>
<path d="M306.33 177.884H304.468C304.298 177.884 304.16 178.026 304.16 178.199V179.09C304.16 179.264 304.298 179.405 304.468 179.405H306.33C306.501 179.405 306.638 179.264 306.638 179.09V178.199C306.638 178.026 306.501 177.884 306.33 177.884Z" fill="#E6E6E6"/>
<path d="M311.286 177.884H309.424C309.254 177.884 309.116 178.026 309.116 178.199V179.09C309.116 179.264 309.254 179.405 309.424 179.405H311.286C311.456 179.405 311.594 179.264 311.594 179.09V178.199C311.594 178.026 311.456 177.884 311.286 177.884Z" fill="#E6E6E6"/>
<path d="M316.242 177.884H314.38C314.21 177.884 314.072 178.026 314.072 178.199V179.09C314.072 179.264 314.21 179.405 314.38 179.405H316.242C316.412 179.405 316.55 179.264 316.55 179.09V178.199C316.55 178.026 316.412 177.884 316.242 177.884Z" fill="#E6E6E6"/>
<path d="M321.198 177.884H319.336C319.166 177.884 319.028 178.026 319.028 178.199V179.09C319.028 179.264 319.166 179.405 319.336 179.405H321.198C321.368 179.405 321.506 179.264 321.506 179.09V178.199C321.506 178.026 321.368 177.884 321.198 177.884Z" fill="#E6E6E6"/>
<path d="M326.154 177.884H324.292C324.122 177.884 323.984 178.026 323.984 178.199V179.09C323.984 179.264 324.122 179.405 324.292 179.405H326.154C326.324 179.405 326.462 179.264 326.462 179.09V178.199C326.462 178.026 326.324 177.884 326.154 177.884Z" fill="#E6E6E6"/>
<path d="M331.109 177.884H329.247C329.077 177.884 328.94 178.026 328.94 178.199V179.09C328.94 179.264 329.077 179.405 329.247 179.405H331.109C331.28 179.405 331.417 179.264 331.417 179.09V178.199C331.417 178.026 331.28 177.884 331.109 177.884Z" fill="#E6E6E6"/>
<path d="M336.065 177.884H334.203C334.033 177.884 333.895 178.026 333.895 178.199V179.09C333.895 179.264 334.033 179.405 334.203 179.405H336.065C336.235 179.405 336.373 179.264 336.373 179.09V178.199C336.373 178.026 336.235 177.884 336.065 177.884Z" fill="#E6E6E6"/>
<path d="M341.021 177.884H339.159C338.989 177.884 338.851 178.026 338.851 178.199V179.09C338.851 179.264 338.989 179.405 339.159 179.405H341.021C341.191 179.405 341.329 179.264 341.329 179.09V178.199C341.329 178.026 341.191 177.884 341.021 177.884Z" fill="#E6E6E6"/>
<path d="M345.977 177.884H344.115C343.945 177.884 343.807 178.026 343.807 178.199V179.09C343.807 179.264 343.945 179.405 344.115 179.405H345.977C346.147 179.405 346.285 179.264 346.285 179.09V178.199C346.285 178.026 346.147 177.884 345.977 177.884Z" fill="#E6E6E6"/>
<path d="M312.773 180.926H293.566C293.396 180.926 293.258 181.067 293.258 181.241V182.132C293.258 182.306 293.396 182.447 293.566 182.447H312.773C312.943 182.447 313.081 182.306 313.081 182.132V181.241C313.081 181.067 312.943 180.926 312.773 180.926Z" fill="#E6E6E6"/>
<path d="M367.705 58.4286H241.172C240.894 58.4223 240.674 58.1868 240.68 57.9025C240.686 57.627 240.903 57.4051 241.172 57.399H367.705C367.983 57.4053 368.204 57.6408 368.198 57.9251C368.192 58.2006 367.975 58.4225 367.705 58.4286V58.4286Z" fill="#CACACA"/>
<path d="M249.785 54.7708C251.414 54.7708 252.734 53.39 252.734 51.6867C252.734 49.9835 251.414 48.6027 249.785 48.6027C248.157 48.6027 246.837 49.9835 246.837 51.6867C246.837 53.39 248.157 54.7708 249.785 54.7708Z" fill="#CCCCCC"/>
<path d="M259.973 54.7708C261.601 54.7708 262.922 53.39 262.922 51.6867C262.922 49.9835 261.601 48.6027 259.973 48.6027C258.344 48.6027 257.024 49.9835 257.024 51.6867C257.024 53.39 258.344 54.7708 259.973 54.7708Z" fill="#CCCCCC"/>
<path d="M270.16 54.7708C271.788 54.7708 273.109 53.39 273.109 51.6867C273.109 49.9835 271.788 48.6027 270.16 48.6027C268.531 48.6027 267.211 49.9835 267.211 51.6867C267.211 53.39 268.531 54.7708 270.16 54.7708Z" fill="#CCCCCC"/>
<path d="M304.309 66.2338L303.9 65.0123L356.165 37.2314L356.573 38.4529L304.309 66.2338Z" fill="#3F3D56"/>
<path d="M462.001 117.69L461.593 116.469L493.042 88.8286L493.45 90.0495L462.001 117.69Z" fill="#3F3D56"/>
<path d="M401.58 124.125L349.316 96.3436L349.725 95.1221L401.988 122.903L401.58 124.125Z" fill="#3F3D56"/>
<path d="M428.334 104.793L397.695 53.3339L398.663 52.506L429.302 103.965L428.334 104.793Z" fill="#3F3D56"/>
<path d="M452.245 37.7405L422.406 37.5998V36.3093L452.245 36.4499V37.7405Z" fill="#3F3D56"/>
<path d="M506.3 45.7456H472.87C468.341 45.7456 464.67 41.9899 464.67 37.3569C464.67 32.7239 468.341 28.9681 472.87 28.9681H506.3C510.829 28.9681 514.5 32.7239 514.5 37.3569C514.5 41.9899 510.829 45.7456 506.3 45.7456Z" fill="#E4C5A2"/>
<path d="M547.931 94.7875H514.501C509.972 94.7875 506.301 91.0317 506.301 86.3988C506.301 81.7658 509.972 78.01 514.501 78.01H547.931C552.46 78.01 556.131 81.7658 556.131 86.3988C556.131 91.0317 552.46 94.7875 547.931 94.7875Z" fill="#E4C5A2"/>
<path d="M493.876 129.371L464.036 129.231V127.94L493.876 128.08V129.371Z" fill="#3F3D56"/>
<path d="M547.931 137.376H514.501C509.972 137.376 506.301 133.621 506.301 128.988C506.301 124.355 509.972 120.599 514.501 120.599H547.931C552.46 120.599 556.131 124.355 556.131 128.988C556.131 133.621 552.46 137.376 547.931 137.376Z" fill="#E4C5A2"/>
<path d="M450.162 131.595H416.731C412.203 131.595 408.531 127.839 408.531 123.206C408.531 118.573 412.203 114.818 416.731 114.818H450.162C454.691 114.818 458.362 118.573 458.362 123.206C458.362 127.839 454.691 131.595 450.162 131.595Z" fill="#E4C5A2"/>
<path d="M404.747 45.1265H371.316C366.787 45.1265 363.116 41.3707 363.116 36.7377C363.116 32.1048 366.787 28.349 371.316 28.349H404.747C409.275 28.349 412.947 32.1048 412.947 36.7377C412.947 41.3707 409.275 45.1265 404.747 45.1265Z" fill="#E4C5A2"/>
<path d="M244.955 189.142H207.109C204.322 189.142 202.062 191.453 202.062 194.304C202.062 197.155 204.322 199.467 207.109 199.467H220.986V239.474H231.078V199.467H244.955C247.742 199.467 250.001 197.155 250.001 194.304C250.001 191.453 247.742 189.142 244.955 189.142V189.142Z" fill="#3F3D56"/>
<path d="M269.934 261.632H168.706C148.422 261.556 131.26 246.273 128.39 225.731L124.806 212.247C117.39 184.306 106.093 157.598 91.2613 132.939C84.4822 121.676 80.9931 110.774 88.9181 100.278C88.9856 100.188 89.052 100.1 89.1172 100.013C95.4735 91.5494 127.111 89.7172 137.425 89.3608C137.832 89.3466 138.241 89.3396 138.652 89.3397H201.615C202.026 89.3397 202.434 89.3468 202.841 89.3608C214.169 89.6987 224.401 96.3705 229.483 106.733C234.905 117.312 234.214 130.083 227.681 139.984C205.564 173.972 198.793 195.284 205.725 209.085C212.431 222.434 232.987 229.259 270.416 230.563C280.475 230.914 285.091 238.926 285.123 246.222C285.155 253.33 280.716 261.177 270.898 261.611C270.579 261.625 270.257 261.632 269.934 261.632V261.632Z" fill="#716882"/>
<path d="M185.903 353.585H223.749C226.536 353.585 228.795 351.274 228.795 348.423C228.795 345.572 226.536 343.26 223.749 343.26H209.872V256.147H199.78V343.26H185.903C183.116 343.26 180.856 345.572 180.856 348.423C180.856 351.274 183.116 353.585 185.903 353.585V353.585Z" fill="#3F3D56"/>
<path d="M220.157 318.465L226.677 322.088L243.936 297.676L234.313 292.328L220.157 318.465Z" fill="#A0616A"/>
<path d="M223.295 309.766L235.131 313.558L233.247 318.63L241.363 330.681C242.402 332.222 242.022 334.333 240.515 335.395C239.619 336.027 238.476 336.168 237.458 335.773L223.68 330.417L223.168 324.477L220.377 329.134L215.182 327.115L223.295 309.766V309.766Z" fill="#2F2E41"/>
<path d="M236.63 72.2773C237.214 76.3732 234.442 80.1778 230.438 80.7752C230.011 80.8389 229.579 80.8639 229.148 80.8499L204.011 135.567L196.127 124.32L222.004 72.5802C222.402 68.4386 226.006 65.4108 230.054 65.8175C233.442 66.1578 236.16 68.8284 236.63 72.2773V72.2773Z" fill="#A0616A"/>
<path d="M153.211 146.631C153.211 146.631 152.537 156.19 163.104 158.064C173.672 159.939 201.921 141.664 206.561 138.858C211.2 136.052 219.846 100.747 219.846 100.747L212.327 87.7372C203.044 99.7504 195.754 110.828 195.311 118.692L153.211 146.631H153.211Z" fill="#97723F"/>
<path d="M165.41 179.557L167.692 189.589C167.692 189.589 167.715 198.839 169.316 200.545C170.906 202.243 205.873 198.834 205.873 198.834C205.873 198.834 202.165 183.928 202.215 172.649L165.41 179.557V179.557Z" fill="#A0616A"/>
<path d="M239.278 307.875L226.662 300.777C226.423 283.983 236.296 261.257 248.007 237.453C221.816 242.061 197.107 243.537 175.734 237.963C168.434 235.991 164.034 228.387 165.855 220.89C165.938 220.536 166.034 220.186 166.143 219.84C168.701 211.856 162.966 206.852 168.241 198.071C182.116 193.223 195.296 191.854 207.349 196.135L214.901 213.216L252.332 208.261C259.901 207.335 266.77 212.862 267.675 220.605C267.679 220.641 267.683 220.676 267.687 220.711C267.738 221.127 267.77 221.544 267.786 221.963C260.217 258.262 251.73 290.924 239.278 307.875Z" fill="#9D4D61"/>
<path d="M160.329 116.046L174.749 115.175C175.996 115.1 177.152 115.842 177.628 117.023L181.703 127.129L198.639 141.449C198.639 141.449 205.345 150.179 205.36 161.453C205.376 172.727 207.739 198.821 207.739 198.821C207.739 198.821 197.953 184.729 191.913 188.477C190.885 189.115 190.524 190.419 189.447 191.078C188.91 191.407 187.67 191.087 187.127 191.416C178.804 196.471 170.123 201.41 169.312 200.544C167.72 198.844 165.788 190.156 165.788 190.156L152.588 140.542C151.139 135.256 152.076 129.584 155.143 125.079C156.065 123.751 157.031 122.763 157.929 122.6C159.945 122.161 158.872 117.538 160.329 116.046V116.046Z" fill="#97723F"/>
<path d="M282.994 339.481L289.081 335.152L275.292 308.537L266.309 314.927L282.994 339.481Z" fill="#A0616A"/>
<path d="M283.914 321.623L274.375 330.347C259.206 313.056 247.739 288.806 238.021 261.267C212.56 253.638 193.359 241.335 176.596 226.727C170.909 221.804 166.646 215.48 171.496 209.484C171.723 209.204 171.96 208.933 172.207 208.671C177.933 202.65 192.455 203.798 200.96 198.282L219.96 219.058L218.764 224.628L254.452 236.994C261.636 239.57 265.419 247.616 262.901 254.966C262.888 255.002 262.876 255.038 262.863 255.074C262.73 255.47 262.58 255.859 262.413 256.242L283.914 321.623V321.623Z" fill="#9D4D61"/>
<path d="M279.445 337.726L289.189 329.876L292.217 334.332L306.521 334.287C308.351 334.281 309.839 335.794 309.845 337.666C309.848 338.78 309.317 339.824 308.423 340.46L296.32 349.066L291.239 346.143L293.42 351.129L288.857 354.374L279.445 337.726V337.726Z" fill="#2F2E41"/>
<path d="M181.623 241.083C177.898 239.466 176.161 235.066 177.741 231.256C177.91 230.85 178.113 230.459 178.349 230.09L145.704 179.692L159.194 178.643L188.968 228.14C192.22 230.639 192.877 235.363 190.434 238.691C188.39 241.475 184.747 242.464 181.623 241.083V241.083Z" fill="#A0616A"/>
<path d="M162.853 129.537C162.853 129.537 155.219 123.983 148.163 132.246C141.108 140.51 141.697 174.697 141.631 180.211C141.61 181.937 144.047 185.662 147.404 189.965C148.911 191.897 150.604 193.945 152.343 195.981C153.35 197.159 152.483 199.612 153.493 200.757C154.498 201.896 157.381 201.728 158.337 202.785C162.875 207.802 166.562 211.622 166.562 211.622L181.335 211.808C181.501 200.573 173.981 190.545 164.319 180.853L162.853 129.537V129.537Z" fill="#97723F"/>
<path d="M147.962 80.6223C146.564 81.6551 145.092 82.719 143.386 82.9749C141.679 83.2308 139.681 82.3868 139.209 80.6897C138.631 78.6146 140.463 76.7252 142.109 75.3766L147.329 71.1003C148.285 70.233 149.364 69.5192 150.53 68.9833C151.716 68.4495 153.074 68.496 154.223 69.1096C155.363 69.8977 156.023 71.2346 155.966 72.6416C155.891 74.0284 155.444 75.3673 154.673 76.5106C152.715 79.633 149.595 81.8022 146.037 82.5161" fill="#2F2E41"/>
<path d="M187.555 191.723H149.709C146.922 191.723 144.662 194.034 144.662 196.885C144.662 199.736 146.922 202.048 149.709 202.048H163.586V242.056H173.678V202.048H187.555C190.342 202.048 192.601 199.736 192.601 196.885C192.601 194.034 190.342 191.723 187.555 191.723V191.723Z" fill="#3F3D56"/>
<path d="M150.281 69.7916C150.433 65.9211 146.402 62.8563 142.624 63.0986C138.846 63.3409 135.598 66.0595 133.456 69.2532C131.314 72.4442 130.027 76.1404 128.34 79.6051C126.652 83.0698 124.405 86.4621 121.052 88.2576C117.7 90.0503 113.033 89.7305 110.716 86.6695C109.255 88.9365 108.937 91.7802 109.861 94.3261C110.809 96.8391 112.578 98.939 114.868 100.27C115.779 100.823 116.752 101.261 117.767 101.574C118.185 100.419 118.773 99.3364 119.512 98.3636C119.178 99.5153 119.051 100.719 119.136 101.917C120.699 102.224 122.307 102.198 123.861 101.841C126.953 101.133 129.538 98.9762 130.838 96.0196C132.255 92.5881 131.533 88.6757 131.836 84.9638C132.137 81.2512 134.324 77.0129 137.965 76.9524C140.738 76.9058 140.371 77.1397 142.128 79.3347" fill="#2F2E41"/>
<path d="M175.462 90.1301C175.462 99.396 168.119 106.908 159.062 106.908C150.005 106.908 141.4 96.1696 141.4 86.9037C141.4 77.6377 150.005 73.3526 159.062 73.3526C168.119 73.3526 175.462 80.8641 175.462 90.1301Z" fill="#2F2E41"/>
<path d="M167.144 110.236C175.609 108.464 181.068 100.006 179.336 91.3457C177.603 82.685 169.336 77.1008 160.871 78.8729C152.405 80.6451 146.946 89.1025 148.678 97.7632C150.411 106.424 158.678 112.008 167.144 110.236Z" fill="#A0616A"/>
<path d="M183.662 92.066C179.03 93.3598 174.354 94.716 172.548 92.066C172.197 90.3088 171.532 88.6331 170.586 87.1231C170.408 88.8142 170.02 90.4752 169.432 92.066C163.58 93.3672 158.111 93.6782 153.385 92.066C152.735 93.2683 152.358 94.6047 152.281 95.9764C152.048 95.8262 151.803 95.6946 151.55 95.5828C151.246 95.407 150.882 95.3741 150.553 95.4924C150.325 95.6332 150.174 95.8738 150.143 96.1442C150.112 96.4133 150.124 96.6859 150.181 96.9508C150.247 97.8738 150.517 98.7694 150.969 99.5707C151.331 100.129 151.906 100.506 152.552 100.61C153.208 104.385 158.431 109.489 158.431 109.489C142.662 110.134 142.662 99.1899 142.662 88.8395L144.554 84.9678H150.862V76.5791H168.524C176.883 76.5813 183.66 83.5137 183.662 92.066V92.066Z" fill="#2F2E41"/>
<path d="M327.374 355.453L50.6237 355.651C50.2089 355.653 49.8709 355.311 49.8688 354.887C49.8666 354.462 50.2011 354.117 50.6159 354.114H50.6237L327.374 353.916C327.789 353.917 328.124 354.262 328.122 354.687C328.121 355.109 327.787 355.451 327.374 355.453V355.453Z" fill="#CACACA"/>
<path d="M512.189 355.453L369.162 355.651C368.747 355.653 368.409 355.311 368.407 354.887C368.405 354.462 368.74 354.117 369.154 354.114H369.162L512.189 353.916C512.604 353.915 512.941 354.258 512.943 354.682C512.944 355.106 512.609 355.451 512.194 355.453H512.189V355.453Z" fill="#CACACA"/>
<path d="M333.699 123.852H279.482C274.773 123.846 270.957 119.942 270.952 115.125V78.3739C270.957 73.5567 274.773 69.6528 279.482 69.6474H333.699C338.408 69.6528 342.224 73.5567 342.229 78.3739V115.125C342.224 119.942 338.408 123.846 333.699 123.852ZM279.482 70.938C275.47 70.9427 272.218 74.2691 272.213 78.3739V115.125C272.218 119.23 275.47 122.556 279.482 122.561H333.699C337.711 122.556 340.963 119.23 340.967 115.125V78.3739C340.963 74.2691 337.711 70.9427 333.699 70.938L279.482 70.938V70.938Z" fill="#E6E6E6"/>
<path d="M295.546 81.2626H281.044V82.5532H295.546V81.2626Z" fill="#E6E6E6"/>
<path d="M313.213 86.4249H281.044V87.7155H313.213V86.4249Z" fill="#E6E6E6"/>
<path d="M313.213 90.9419H281.044V92.2325H313.213V90.9419Z" fill="#E6E6E6"/>
<path d="M322.044 95.4589H281.044V96.7495H322.044V95.4589Z" fill="#E6E6E6"/>
<path d="M302.49 99.9759H281.044V101.267H302.49V99.9759Z" fill="#E6E6E6"/>
<path d="M320.152 104.493H281.044V105.784H320.152V104.493Z" fill="#E6E6E6"/>
<path d="M287.983 109.01H281.044V110.301H287.983V109.01Z" fill="#E6E6E6"/>
<path d="M280.572 53.4883C280.511 53.4883 280.45 53.4641 280.403 53.4158L279.057 52.0083C278.968 51.9145 278.968 51.7646 279.057 51.6708L280.403 50.2635C280.495 50.1683 280.644 50.1668 280.737 50.2597C280.83 50.3529 280.832 50.5057 280.741 50.6009L279.556 51.8396L280.741 53.0783C280.832 53.1735 280.83 53.3263 280.737 53.4195C280.691 53.4655 280.631 53.4883 280.572 53.4883V53.4883Z" fill="#CCCCCC"/>
<path d="M282.834 53.4883C282.774 53.4883 282.714 53.4655 282.669 53.4195C282.575 53.3263 282.574 53.1736 282.665 53.0783L283.849 51.8396L282.665 50.6009C282.574 50.5057 282.575 50.3529 282.669 50.2597C282.762 50.1664 282.911 50.1682 283.002 50.2635L284.348 51.6708C284.438 51.7646 284.438 51.9145 284.348 52.0083L283.002 53.4158C282.956 53.4641 282.895 53.4883 282.834 53.4883V53.4883Z" fill="#CCCCCC"/>
<path d="M353.242 49.9951H350.74C350.454 49.9951 350.223 50.2316 350.223 50.5236V53.0861C350.223 53.3781 350.454 53.6146 350.74 53.6146H353.242C353.527 53.6146 353.761 53.3781 353.761 53.0861V50.5236C353.761 50.2316 353.527 49.9951 353.242 49.9951Z" fill="#CCCCCC"/>
<path d="M347.11 49.9951H344.607C344.322 49.9951 344.09 50.2316 344.09 50.5236V53.0861C344.09 53.3781 344.322 53.6146 344.607 53.6146H347.11C347.395 53.6146 347.628 53.3781 347.628 53.0861V50.5236C347.628 50.2316 347.395 49.9951 347.11 49.9951Z" fill="#CCCCCC"/>
<path d="M359.021 50.1158H356.518C356.233 50.1158 356.002 50.3522 356.002 50.6442V53.2068C356.002 53.4987 356.233 53.7352 356.518 53.7352H359.021C359.306 53.7352 359.54 53.4987 359.54 53.2068V50.6442C359.54 50.3522 359.306 50.1158 359.021 50.1158Z" fill="#CCCCCC"/>
<path d="M321.301 51.0906H301.297C300.948 51.0906 300.667 51.3801 300.667 51.7348C300.667 52.0896 300.948 52.3791 301.297 52.3791H321.301C321.647 52.3791 321.93 52.0895 321.93 51.7348C321.93 51.3801 321.647 51.0906 321.301 51.0906Z" fill="#CCCCCC"/>
</g>
<defs>
<linearGradient id="paint0_linear_14_3" x1="6.67628" y1="384" x2="609.095" y2="56.872" gradientUnits="userSpaceOnUse">
<stop stop-color="#F3D6B4"/>
<stop offset="1" stop-color="#F3DCBD"/>
</linearGradient>
<clipPath id="clip0_14_3">
<rect width="506.263" height="327.302" fill="white" transform="translate(49.8687 28.349)"/>
</clipPath>
</defs>
</svg>
